<?xml version="1.0" encoding="UTF-8" standalone="no"?>
<!-- Created with Inkscape (http://www.inkscape.org/) -->

<svg
   version="1.1"
   id="svg1"
   width="560"
   height="600"
   viewBox="0 0 560 600"
   sodipodi:docname="ladybug_template.svg"
   inkscape:version="1.4.4 (dcaf3e7, 2026-05-05)"
   xml:space="preserve"
   xmlns:inkscape="http://www.inkscape.org/namespaces/inkscape"
   xmlns:sodipodi="http://sodipodi.sourceforge.net/DTD/sodipodi-0.dtd"
   xmlns="http://www.w3.org/2000/svg"
   xmlns:svg="http://www.w3.org/2000/svg"><defs
     id="defs1" /><sodipodi:namedview
     id="namedview1"
     pagecolor="#ffffff"
     bordercolor="#000000"
     borderopacity="0.25"
     inkscape:showpageshadow="2"
     inkscape:pageopacity="0.0"
     inkscape:pagecheckerboard="0"
     inkscape:deskcolor="#d1d1d1"
     showgrid="false"
     inkscape:zoom="0.90487363"
     inkscape:cx="218.26252"
     inkscape:cy="165.21644"
     inkscape:window-width="1920"
     inkscape:window-height="974"
     inkscape:window-x="-11"
     inkscape:window-y="-11"
     inkscape:window-maximized="1"
     inkscape:current-layer="layer1" /><g
     inkscape:groupmode="layer"
     id="layer1"
     inkscape:label="Image 1"><path
       style="fill:#000000"
       id="path21"
       d="m 248.13791,245.8705 c -3.67057,-1.31282 -7.64477,-0.78256 -11.34478,0.0905 -3.64631,1.00495 -7.08081,2.56361 -10.52595,4.08902 -2.97752,1.36994 -5.59332,3.27973 -7.9952,5.48517 -2.69318,2.52198 -5.07095,5.35373 -7.30922,8.27997 -2.18428,3.003 -4.45158,5.95528 -6.45254,9.08568 -1.97046,3.37162 -3.40961,7.02822 -4.77724,10.67742 -1.49894,4.28698 -3.1185,8.53737 -4.55883,12.84447 -2.12456,5.8364 -3.13645,11.96686 -3.88081,18.10728 -0.70612,5.40389 -0.18074,10.8135 0.73082,16.15182 1.28133,5.1948 2.62335,10.34257 3.34588,15.65118 0.80639,4.9497 1.22243,9.94762 1.80086,14.92619 0.67737,5.66493 1.83389,11.22823 3.40478,16.70794 1.69362,5.80852 3.82675,11.45833 6.44777,16.90762 2.28182,5.03296 5.41579,9.51275 9.14083,13.56366 3.77138,4.00669 8.22185,7.03498 13.07154,9.55876 4.89935,2.36045 10.17872,3.74946 15.46521,4.93023 5.05533,1.28614 10.15452,2.38746 15.20963,3.67311 5.66377,1.3839 11.44047,1.86836 17.24247,1.44132 6.26159,-0.40704 12.33441,-2.00658 18.26533,-3.96963 6.0484,-2.05933 11.08536,-6.00501 16.17474,-9.72953 5.78585,-3.9734 9.54972,-8.50248 13.05141,-14.51216 3.84232,-7.45429 5.3149,-15.71124 6.50445,-23.9236 1.38794,-9.6988 1.07659,-19.4706 0.18658,-29.1907 -0.83564,-8.08731 -2.41229,-16.04066 -4.17915,-23.96456 -1.67086,-6.98342 -4.00873,-13.75781 -6.72341,-20.39494 -3.05202,-7.00295 -6.57884,-13.75765 -10.84546,-20.09425 -4.40852,-6.07429 -9.35187,-11.75261 -14.68108,-17.03174 -4.60385,-4.18989 -9.29499,-8.28479 -14.07803,-12.26883 -4.4779,-3.49244 -9.13059,-6.91094 -14.37979,-9.14228 -4.44694,-1.50582 -9.19406,-1.89201 -13.86,-1.69504 -2.72145,0.20677 -4.1259,0.89891 -6.25458,2.47899 0,0 1.23706,2.36806 1.23706,2.36806 v 0 c 2.03342,-0.0322 4.05006,-0.15983 6.0708,-0.40431 4.13654,-0.064 8.34365,0.28968 12.23192,1.7983 4.03585,1.88792 7.70846,4.4264 11.21612,7.1709 4.74344,3.90282 9.38194,7.92968 13.98159,12.00001 5.23819,5.06959 10.03186,10.60089 14.40924,16.42983 4.20614,6.10904 7.6096,12.66143 10.60198,19.44551 2.66527,6.45949 5.00451,13.03709 6.61959,19.84858 1.74933,7.78732 3.38772,15.58654 4.21253,23.5404 0.92768,9.44553 1.27617,18.94963 -0.10389,28.37906 -1.13314,7.75917 -2.4998,15.57702 -6.12976,22.62237 -3.21353,5.50088 -6.83099,9.77015 -12.15878,13.37057 -4.80696,3.49812 -9.5475,7.21655 -15.27341,9.10484 -5.65784,1.84824 -11.44577,3.34128 -17.41735,3.66594 -5.45824,0.28972 -10.88523,-0.24896 -16.1853,-1.63242 -5.08158,-1.24168 -10.18222,-2.40409 -15.25624,-3.67698 -4.16648,-0.96996 -8.32857,-1.99112 -12.25802,-3.72662 -4.57202,-2.26889 -8.80158,-4.92504 -12.4134,-8.5893 -3.59713,-3.73262 -6.66652,-7.85815 -8.82983,-12.6034 -2.5945,-5.25741 -4.82395,-10.68222 -6.48296,-16.31365 -1.58422,-5.30651 -2.77398,-10.68146 -3.45955,-16.1837 -0.6348,-4.9982 -1.04607,-10.02808 -2.03841,-14.97416 -0.82484,-5.32279 -2.13776,-10.50751 -3.54274,-15.703 -0.9526,-5.06793 -1.50789,-10.22508 -0.88386,-15.37521 0.66707,-5.96826 1.61344,-11.92176 3.69161,-17.58558 1.40569,-4.28489 3.05211,-8.49498 4.53172,-12.7547 1.28802,-3.4874 2.65298,-6.97974 4.5174,-10.20391 1.94412,-3.0763 4.19189,-5.95381 6.32493,-8.89963 2.15579,-2.80483 4.41303,-5.54437 7.00584,-7.96068 2.19737,-2.03416 4.62573,-3.74002 7.34428,-5.02107 3.25533,-1.53393 6.52849,-3.05913 10.00624,-4.03071 3.25191,-0.73747 6.73733,-1.22014 9.94369,-0.0114 z" /><path
       style="fill:#000000"
       id="path22"
       d="m 160.53733,246.35232 c 3.46377,-1.12833 7.10386,-1.28343 10.70989,-1.46414 5.35667,-0.38246 10.69527,-0.0551 16.03518,0.36241 5.5133,0.39321 11.04016,0.52621 16.56508,0.62736 5.08904,-0.10505 10.11081,-0.62216 15.05038,-1.85326 4.98438,-1.04441 9.76929,-2.73382 14.39058,-4.84721 4.06728,-1.82386 7.89339,-4.08929 11.61314,-6.53158 3.13969,-2.33659 5.81834,-5.17964 8.33635,-8.15452 2.24815,-2.43284 4.01312,-5.00339 4.58094,-8.29168 0.45583,-4.04064 -1.41055,-7.45743 -3.51733,-10.73673 -2.75197,-4.40265 -6.50606,-7.97999 -10.39826,-11.35613 -3.70682,-3.38543 -7.69486,-6.4404 -11.66848,-9.5018 -2.95553,-2.03377 -6.19841,-3.88744 -9.70086,-4.80685 -1.83408,-0.48146 -2.95178,-0.49989 -4.83621,-0.66771 -5.11299,-0.018 -10.11042,1.20611 -14.91597,2.857 -3.87624,1.30197 -7.662,2.81437 -11.34994,4.57686 -5.30115,2.28153 -9.5806,6.14957 -13.68372,10.10776 -4.34833,4.26533 -8.25524,8.95036 -11.8516,13.85912 -2.56993,3.71559 -3.83222,8.05737 -5.18754,12.31021 -1.52492,4.1099 -2.73047,8.31521 -3.10453,12.6909 -0.13549,3.06756 0.63781,6.07223 1.18672,9.06913 0.46232,1.37891 0.01,0.77642 1.70439,1.48491 0,0 1.06836,0.13265 1.06836,0.13265 v 0 c 1.71017,-1.00123 1.44614,-0.28637 1.42208,-1.79005 -0.50683,-2.74243 -1.31788,-5.46352 -1.33375,-8.26791 0.13944,-4.12997 1.43964,-8.06534 2.8224,-11.93019 1.27109,-3.9141 2.35367,-7.95441 4.69106,-11.40302 3.47922,-4.76401 7.21927,-9.35026 11.4538,-13.46941 3.88711,-3.70664 7.94829,-7.2741 12.96742,-9.36399 3.58509,-1.68324 7.25699,-3.15295 11.01132,-4.41919 4.38086,-1.46627 8.95024,-2.57618 13.60239,-2.43225 3.85977,0.46169 7.53393,1.65147 10.77111,3.84969 3.95076,3.00102 7.90996,6.01373 11.57964,9.35733 3.72431,3.11127 7.32867,6.44064 9.96823,10.55542 1.75742,2.58163 3.49933,5.24182 3.41108,8.4918 -0.13582,2.70906 -2.03418,4.75564 -3.69166,6.75971 -2.30948,2.77075 -4.78943,5.41404 -7.69114,7.57984 -3.5853,2.36949 -7.27316,4.57912 -11.20174,6.34064 -4.45873,2.03615 -9.07126,3.65125 -13.87556,4.67367 -4.69602,1.15698 -9.49179,1.62958 -14.32455,1.75428 -5.46986,-0.0599 -10.93934,-0.19797 -16.40035,-0.52868 -5.44346,-0.34697 -10.88625,-0.52795 -16.33479,-0.11181 -3.82636,0.29295 -7.70306,0.65913 -11.34982,1.93026 z" /><path
       style="fill:#000000"
       id="path23"
       d="m 160.28177,300.14511 c 0.70769,3.69113 1.4671,7.37256 2.17009,11.06548 1.06937,6.69051 2.03782,13.3962 3.11033,20.08614 1.58172,7.71641 2.70676,15.52008 4.62389,23.16324 1.76466,6.74348 3.37002,13.52292 4.84511,20.33488 1.37199,5.57031 2.77931,11.13604 4.35356,16.65337 1.1968,4.60624 2.65333,9.13977 4.14039,13.65882 1.47662,4.11662 2.46939,8.34482 3.31819,12.62774 0.67062,3.57681 0.9854,7.20776 1.09352,10.84179 0.15065,-0.60902 -0.16163,2.49134 -0.0119,1.88209 0.21323,-0.86783 0.18442,-0.91693 0.82972,-1.69671 -3.61502,0.0966 -7.23167,0.09 -10.84766,0.10071 -5.31796,0.0906 -10.60929,-0.66839 -15.84917,-1.49859 -4.99227,-0.80739 -9.78866,-2.26089 -14.47503,-4.13274 -3.28959,-1.63122 -6.85754,-2.77764 -10.02003,-4.66683 -2.21456,-1.32291 -3.54651,-2.49527 -5.58722,-4.11114 -6.20963,-4.95623 -11.14025,-11.16646 -15.9596,-17.41645 -4.09102,-5.1707 -7.5893,-10.70443 -10.45338,-16.63446 -1.77597,-4.1523 -3.61965,-8.32635 -4.8325,-12.68943 -0.957007,-3.44272 -1.166497,-5.1257 -1.797047,-8.67157 -1.250299,-8.13873 -1.406172,-16.38092 -1.976133,-24.58135 -0.37283,-5.48221 -0.761118,-10.97322 -0.603939,-16.46977 0.208108,-4.31153 0.800848,-8.64671 2.139013,-12.76057 0.460249,-1.12572 0.877849,-2.31777 1.639956,-3.28159 -3.875027,0.49839 -4.352971,-0.10707 -1.294547,1.17132 0.24824,0.10376 -1.004196,-0.38701 -0.753763,-0.28866 2.83929,1.11495 1.614623,0.76173 3.87289,1.27623 4.13807,0.75649 8.29869,1.37428 12.4623,1.97959 5.30227,0.89119 10.6074,1.91969 15.97228,2.33143 5.13815,0.14724 10.29825,0.18957 15.42758,-0.17888 4.09181,-0.35 8.18749,-0.61625 12.1732,-1.65242 0.97039,-0.46045 3.85851,-0.56444 3.89974,-2.17841 0.0159,-0.62231 -0.36784,-1.18945 -0.55176,-1.78418 0,0 -1.90483,0.26294 -1.90483,0.26294 v 0 c -0.10987,-0.33922 -0.43774,-1.42923 -0.50756,-1.43556 -0.88155,-0.08 -1.91467,1.16811 -2.8281,0.98505 -3.77658,0.93718 -7.66221,1.16325 -11.52683,1.51264 -4.95466,0.31617 -9.93634,0.28621 -14.89566,0.0866 -5.28498,-0.48314 -10.50874,-1.50404 -15.74174,-2.36802 -4.03981,-0.62776 -8.09446,-1.18701 -12.08307,-2.09875 -0.37392,-0.11482 -0.73658,-0.2764 -1.12177,-0.34445 -0.16745,-0.0296 0.61368,0.29272 0.45686,0.22697 -1.683037,-0.70562 -2.831479,-2.04771 -4.920033,-0.10557 -0.920758,1.35102 -1.514915,2.89676 -2.077856,4.42147 -1.39275,4.45409 -2.112868,9.10303 -2.317067,13.763 -0.205428,5.62869 0.161613,11.25915 0.617411,16.86941 0.62463,8.33754 0.834462,16.71332 2.078029,24.9938 0.571671,3.36011 0.921181,5.85694 1.776401,9.15288 1.183885,4.56259 3.112248,8.90053 4.916045,13.23848 2.93574,6.18544 6.51262,11.97359 10.77572,17.34542 4.99427,6.45833 10.08575,12.8865 16.4329,18.0986 1.8909,1.55961 3.95332,3.36291 6.03434,4.68443 3.20205,2.03341 6.93146,3.12934 10.27879,4.87814 5.77138,2.39186 11.75567,4.03394 17.93971,4.97438 5.42157,0.80088 10.8828,1.46117 16.37568,1.29827 3.51573,-0.0331 7.0375,-0.15394 10.55095,-0.0145 0.58657,-0.20495 1.22482,-0.29866 1.75969,-0.61484 1.24597,-0.73654 0.78503,-2.70144 0.72948,-3.82756 -0.27879,-3.78372 -0.5584,-7.57792 -1.30921,-11.30414 -0.92466,-4.40208 -1.87103,-8.77214 -3.51581,-12.97462 -1.55235,-4.44121 -2.98161,-8.9311 -4.20466,-13.47493 -1.63635,-5.43474 -3.07595,-10.9284 -4.49066,-16.42403 -1.55055,-6.83701 -3.17442,-13.65484 -5.13851,-20.38742 -2.0482,-7.53643 -3.23643,-15.25809 -4.9466,-22.87429 -1.10923,-6.71458 -2.13751,-13.44187 -3.45813,-20.1198 -0.72847,-3.73604 -1.51322,-7.45534 -2.39413,-11.15717 z" /><path
       style="fill:#000000"
       id="path24"
       d="m 336.78387,257.02243 c -3.16701,3.23184 -1.2367,8.03638 -0.0825,11.73821 2.60631,6.99543 4.56836,14.18227 6.29979,21.43462 1.76343,7.74883 3.01466,15.59777 4.82368,23.33565 1.70901,6.63373 2.69529,13.40465 3.85819,20.14545 1.08322,6.20836 2.6287,12.3082 4.24841,18.39301 1.53474,4.96741 2.70159,10.04087 3.59168,15.16102 0.70181,4.7382 0.71761,9.53189 1.21029,14.29073 0.38886,2.26003 0.15084,4.68708 1.12587,6.80447 2.26824,3.46895 5.3932,-0.008 7.3574,-1.6015 4.63873,-3.14908 9.32032,-6.24234 14.11851,-9.14339 5.69706,-3.66343 12.08655,-7.33263 16.85292,-12.21539 0.8892,-0.91092 1.65647,-1.93335 2.48471,-2.90003 4.69028,-6.45484 7.14251,-14.14229 8.85137,-21.84865 2.55022,-10.32718 2.35154,-20.90586 1.93273,-31.44608 -0.21948,-10.77934 -2.9054,-21.16701 -5.93714,-31.43159 -2.23152,-8.8604 -6.24427,-16.96521 -11.07588,-24.65784 -3.17207,-4.80018 -6.70173,-9.28146 -10.79732,-13.31563 -1.73762,-1.4625 -3.0156,-3.3469 -4.54874,-4.99737 -1.0531,-0.79982 -1.45611,-2.36153 -2.46181,-3.17333 -0.77064,-0.62205 -1.64336,-1.10575 -2.46504,-1.65863 -3.98708,-0.49201 -6.7515,2.58081 -9.48018,5.02302 -2.82586,2.97383 -5.78665,5.80514 -8.7842,8.60443 -3.35198,2.67823 -6.86929,5.1353 -10.26239,7.75963 -3.22269,2.36855 -6.2784,4.92735 -9.6389,7.09765 -0.67452,0.61555 -1.61265,0.85559 -2.31571,1.42855 -0.60733,0.49495 -0.75707,1.16546 -1.37784,1.62334 0,0 1.4532,2.56136 1.4532,2.56136 v 0 c 2.2048,-0.44342 3.21693,-0.37288 5.12532,-1.99209 3.41088,-2.26266 6.53414,-4.89178 9.83048,-7.31602 3.4915,-2.69311 7.12872,-5.19364 10.542,-7.9886 2.94387,-2.79635 5.84492,-5.62979 8.65635,-8.55945 1.00867,-0.87466 3.96521,-4.00742 5.48818,-3.66454 -2.43481,-2.305 -0.5656,-0.54787 -0.47376,-0.42971 0.70108,0.90205 1.18903,1.97092 2.00633,2.7897 1.48502,1.8202 3.09265,3.59463 4.78482,5.23783 1.01339,0.97345 2.08154,1.89124 3.05756,2.90216 2.83888,2.94044 5.04939,6.41694 7.50961,9.66065 4.82212,7.34739 8.81167,15.12911 10.9949,23.70023 2.9255,10.03045 5.7597,20.134 5.98744,30.66877 0.41616,10.36132 0.61246,20.42687 -1.92199,30.58257 -1.5518,7.16706 -3.80052,14.33141 -8.1309,20.34644 -0.73104,0.86128 -1.40723,1.77231 -2.19312,2.58386 -4.68238,4.83526 -10.68522,8.29445 -16.3165,11.86257 -4.90007,2.99912 -9.74303,6.10512 -14.48246,9.35178 -0.92665,0.71458 -2.04739,1.32693 -2.93574,2.07394 -0.11762,0.0989 0.27453,-0.23091 0.42162,-0.18643 0.76426,0.23109 1.45846,0.65028 2.1877,0.97542 -0.0244,0.0244 -0.0488,0.0487 -0.0731,0.0731 -0.61806,-0.12858 -0.79952,-4.60951 -0.97847,-5.29283 -0.57403,-4.80628 -0.60958,-9.65185 -1.31314,-14.44523 -0.9124,-5.20825 -2.07876,-10.38282 -3.69185,-15.42178 -1.63825,-5.98672 -3.24621,-11.97833 -4.35009,-18.09263 -1.25343,-6.78329 -2.16443,-13.62968 -3.99694,-20.29531 -1.91776,-7.71782 -3.35874,-15.53349 -5.11401,-23.28855 -1.8067,-7.30833 -3.67852,-14.61811 -6.54737,-21.59909 -1.00563,-3.06323 -2.48796,-6.35053 -1.07728,-9.51117 z" /><path
       style="fill:#000000"
       id="path25"
       d="m 425.64171,284.92686 c 1.29474,-3.4952 3.18258,-6.76094 4.96694,-10.02704 3.21746,-5.62592 6.74432,-11.08503 10.99783,-15.98283 1.78815,-2.02045 3.79691,-3.82486 5.92358,-5.47932 0.79543,-0.61881 1.84614,-1.69095 2.91599,-1.68582 0.0397,0.0994 0.22379,0.27532 0.11921,0.29823 -0.22507,0.0493 -0.51437,-0.34986 -0.6679,-0.17805 -0.15064,0.16857 0.20321,0.40598 0.27168,0.62144 0.0961,0.30253 0.16631,0.61367 0.22023,0.92649 0.15525,0.90054 0.16969,1.60516 0.22416,2.522 -0.20784,3.18151 -1.07157,6.33489 -2.59715,9.13083 -2.19902,3.78668 -5.02109,7.1352 -7.87227,10.4383 -2.67193,3.02541 -5.47602,5.93093 -8.32831,8.78579 -0.70076,0.55728 -0.98183,1.12026 -1.1212,1.96372 0,0 1.42762,1.36142 1.42762,1.36142 v 0 c 0.85569,-0.16119 1.43524,-0.45072 1.992,-1.17371 2.82704,-2.94787 5.65004,-5.90166 8.32438,-8.99042 2.948,-3.44628 5.84506,-6.97969 8.02803,-10.97406 1.62449,-3.19873 2.67292,-6.71744 2.84766,-10.31655 -0.17784,-2.48615 -0.087,-5.41519 -2.62286,-6.77976 -0.36074,-0.19411 -0.81703,-0.0611 -1.22554,-0.0916 -3.62032,1.36549 -6.90085,5.54439 -9.62469,8.1373 -4.27434,5.04237 -7.71655,10.70562 -11.09546,16.37493 -1.83815,3.31788 -3.72517,6.66007 -5.12129,10.18849 z" /><path
       style="fill:#000000"
       id="path26"
       d="m 435.44777,325.74994 c 2.38012,-4.67972 6.08991,-8.44445 9.81289,-12.06449 5.4641,-4.61771 11.366,-8.77984 17.60668,-12.28267 1.6643,-0.79448 2.49502,-1.31359 4.22138,-1.73948 0.39361,-0.0971 0.80694,-0.20557 1.20766,-0.14411 0.1875,0.0288 0.59913,0.36134 0.41202,0.39254 -1.29248,0.21548 -0.75557,-0.92436 -1.10381,0.20199 -1.39343,3.93928 -4.1242,7.16199 -6.78895,10.30152 -4.32996,4.48091 -9.36799,8.19425 -14.28137,11.99889 -2.33277,1.84357 -4.7677,3.52846 -7.37791,4.95254 -0.63461,0.34622 -1.31645,0.60776 -1.92754,0.99399 -0.869,0.54924 -1.61059,1.2783 -2.4302,1.89882 0,0 1.04389,1.5979 1.04389,1.5979 v 0 c 1.00803,-0.34224 2.08727,-0.45723 3.08255,-0.83494 3.58725,-1.36135 6.52185,-4.14829 9.61094,-6.30547 5.00012,-3.93182 10.09245,-7.82194 14.28428,-12.64674 2.89528,-3.43815 5.85317,-6.95151 7.35151,-11.26053 0.0689,-0.53596 0.39831,-1.10266 0.20664,-1.60789 -1.56698,-4.13046 -6.43157,-0.80104 -8.8139,0.32004 -6.28584,3.69665 -12.39251,7.85905 -17.76565,12.80161 -3.71768,3.89885 -7.5023,7.85521 -10.0883,12.62942 z" /><path
       style="fill:#000000"
       id="path27"
       d="m 424.30118,359.23592 c 6.35765,-0.90214 12.75304,-1.331 19.16534,-1.6054 6.58953,-0.2754 13.3279,-0.86407 19.66538,1.30782 0.40236,0.26768 0.88345,0.44415 1.2071,0.80304 0.0826,0.0916 -0.29121,0.0545 -0.32743,0.1724 -0.0613,0.19952 0.0976,0.41225 0.0839,0.62053 -0.0564,0.85657 -0.73863,1.5005 -1.27015,2.08277 -3.38965,2.80656 -7.93311,3.80433 -12.09671,4.91832 -6.4801,1.41629 -13.09218,1.86272 -19.70537,1.65856 -2.56283,-0.18796 -4.57924,0.88536 -6.78669,1.95804 0,0 0.81906,1.70594 0.81906,1.70594 v 0 c 2.22207,-0.33729 4.35171,-0.0839 6.59921,-0.19315 6.87291,0.12568 13.75076,-0.42403 20.46049,-1.98887 4.64389,-1.32912 9.58467,-2.69841 13.23412,-6.02226 3.01003,-3.69286 2.70122,-6.65512 -2.11746,-8.66965 -6.67886,-1.75866 -13.57996,-1.29354 -20.4137,-0.90383 -6.35019,0.46703 -12.68172,1.10795 -19.00606,1.806 z" /><path
       style="fill:#000000"
       id="path28"
       d="m 87.879657,380.134 c -3.33676,-1.79501 -6.681291,-3.2229 -10.375562,-4.11158 -7.684393,-1.37887 -15.534772,-1.12292 -23.292385,-0.67894 -6.490313,0.32875 -12.946535,1.07495 -19.287503,2.50246 -5.314694,1.79391 -1.339023,4.61646 1.353231,6.4458 5.027216,3.13263 10.7513,5.40226 16.741718,5.60111 1.333053,0.0443 2.665685,-0.10039 3.998527,-0.15058 5.644787,-0.78468 12.270653,-1.37591 17.555673,-3.60904 0.718759,-0.28718 1.437517,-0.57435 2.156276,-0.86152 0,0 -1.014445,-1.95294 -1.014445,-1.95294 v 0 c -0.705836,0.23121 -1.411671,0.46242 -2.117507,0.69364 -5.735673,1.00634 -11.328685,2.83109 -17.171098,3.20545 -1.229667,0.0463 -2.459359,0.18597 -3.689,0.13898 -5.117909,-0.1956 -10.044655,-2.11789 -14.396415,-4.70933 -0.963785,-0.6261 -1.837791,-1.38678 -2.818879,-1.9854 -0.485503,-0.29623 -0.672717,0.0527 -0.997731,0.38765 -0.363495,0.37457 2.682776,-2.46847 1.39609,-0.70906 6.204173,-1.44587 12.52848,-2.24055 18.891146,-2.56358 7.559626,-0.40076 15.227539,-0.73524 22.703441,0.70215 3.595129,0.9073 6.908096,2.37506 10.367843,3.65976 z" /><path
       style="fill:#000000"
       id="path29"
       d="m 90.863419,406.79897 c -4.158156,-0.49737 -8.325994,0.1603 -12.374925,1.08173 -8.115304,2.29165 -15.466745,6.59014 -22.604813,10.9722 -5.176079,3.29379 -10.13534,6.89977 -14.7144,10.98353 -1.866659,1.99318 -2.880705,4.61909 1.401282,4.70621 0.631465,0.0128 4.392486,-1.62807 4.659588,-1.73877 8.333471,-3.50822 16.014185,-8.25599 23.707472,-12.95306 3.207684,-2.52713 7.392367,-3.84791 10.342895,-6.72649 0.530583,-0.51764 0.928294,-1.15592 1.39244,-1.73389 0,0 -1.128104,-1.19207 -1.128104,-1.19207 v 0 c -4.240975,2.19974 -8.018976,5.216 -12.13298,7.6442 -7.544547,4.72172 -15.129828,9.42901 -23.449502,12.69486 -0.814015,0.31031 -1.616392,0.65307 -2.442045,0.93094 -0.511981,0.1723 -1.216757,0.006 -1.56579,0.41787 -0.208972,0.24685 0.485923,0.49918 0.516913,0.82112 0.09216,0.9574 -1.1023,0.851 0.61599,-0.99147 4.416815,-4.06582 9.209526,-7.66918 14.246767,-10.93644 6.934964,-4.29616 14.127375,-8.43689 22.056116,-10.58716 3.921657,-0.81919 7.878938,-1.17617 11.875368,-1.40774 z" /><path
       style="fill:#000000"
       id="path30"
       d="m 107.14194,434.80526 c -3.43063,0.93398 -6.86166,1.95557 -10.12996,3.37218 -6.756517,3.14275 -12.285234,8.06778 -17.446507,13.33503 -6.324978,6.77557 -11.469985,14.44617 -15.344816,22.8473 -0.523004,1.59214 -3.557704,8.03637 -1.940685,9.64961 0.612341,0.61091 1.490714,0.87777 2.236071,1.31665 0.626788,-0.19745 1.295359,-0.29298 1.880364,-0.59234 1.053465,-0.53908 4.23895,-3.01836 4.970751,-3.61005 3.714501,-3.00333 7.234759,-6.24204 10.773542,-9.44681 5.930853,-5.48259 11.934124,-11.11785 16.082959,-18.13754 0.596712,-1.00962 1.060157,-2.09228 1.590236,-3.13842 0.979165,-3.66355 0.444035,-1.94512 1.565225,-5.16762 0,0 -0.69241,-0.33114 -0.69241,-0.33114 v 0 c -1.672617,2.88219 -0.67758,1.44048 -3.064164,4.26949 -0.937922,1.51538 -2.999113,4.88606 -3.949394,6.2358 -3.806745,5.40696 -8.594037,9.98156 -13.470428,14.40912 -4.932637,4.45494 -9.869305,9.40614 -15.778505,12.53315 0.244997,0.31987 0.525988,0.61514 0.73499,0.9596 0.07869,0.1297 -0.293216,-0.15997 -0.337796,-0.30497 -0.100934,-0.32829 -0.112558,-0.6868 -0.07198,-1.02786 0.264194,-2.22057 1.291574,-4.3426 1.973942,-6.43828 3.647414,-8.22997 8.63256,-15.7081 14.823417,-22.26688 4.987712,-5.0397 10.316867,-9.83018 16.773003,-12.92498 3.214745,-1.44416 6.610675,-2.34817 9.821175,-3.78296 z" /><path
       style="fill:#000000"
       id="path31"
       d="m 362.76501,401.06555 c -2.85218,-0.36129 -5.71774,-0.23216 -8.56593,0.0768 -4.60337,1.00935 -7.43129,3.42941 -10.03155,7.25046 -1.87089,3.98957 -3.21467,9.41179 -0.89313,13.56633 0.49939,0.8937 1.28607,1.59322 1.92911,2.38983 0.9286,0.56332 1.74563,1.37742 2.78579,1.68996 6.30844,1.89555 13.20071,-0.86067 18.35322,-4.44201 1.33788,-0.92992 2.51724,-2.06933 3.77587,-3.104 3.23494,-3.5577 7.22342,-8.67026 5.16909,-13.88538 -1.12678,-2.86043 -2.46257,-3.09376 -4.92172,-4.5607 -5.26297,-1.35467 -7.15291,0.008 -11.99094,1.46482 0,0 0.88993,1.74648 0.88993,1.74648 v 0 c 1.08395,-0.32028 2.13069,-0.81753 3.25184,-0.96083 1.57701,-0.20156 3.70316,0.12059 5.35872,0.32504 1.3565,0.54624 2.93472,0.88079 3.76355,2.27778 2.32046,3.91118 -1.65425,8.5007 -3.95639,11.185 -1.14056,0.94503 -2.20497,1.99038 -3.4217,2.83509 -3.70349,2.57111 -7.49364,3.70814 -11.88081,4.39182 -0.64436,0.10041 -1.2985,0.35076 -1.94142,0.24155 -0.78615,-0.13355 -1.46521,-0.62981 -2.19781,-0.94471 -0.51841,-0.46541 -1.14897,-0.83028 -1.55522,-1.39625 -2.27901,-3.17492 -1.07238,-7.87376 0.37045,-11.06838 1.9824,-3.05458 4.51158,-5.2712 8.13653,-6.12497 2.715,-0.34255 5.43869,-0.31766 8.15832,-0.55257 z" /><path
       style="fill:#000000"
       id="path32"
       d="m 223.07154,445.2202 c -4.4735,1.58633 -5.18868,4.13362 -5.47681,8.61165 0.23432,0.93674 0.31244,1.92712 0.70297,2.81023 2.2108,4.9993 8.06402,6.54279 13.07454,6.00826 1.44731,-0.15441 2.85134,-0.5866 4.27701,-0.8799 4.86935,-1.78851 12.96124,-5.5996 11.69603,-12.21922 -0.20285,-1.06128 -0.88522,-1.97136 -1.32783,-2.95704 -2.99032,-3.05775 -6.18097,-4.49753 -10.6103,-4.27144 -2.64079,0.1348 -4.53213,1.50165 -6.72682,2.71834 0,0 0.77521,1.33114 0.77521,1.33114 v 0 c 4.67196,-0.83915 8.91955,-1.48341 12.97803,1.4776 0.37502,0.50501 0.87946,0.93592 1.12504,1.51501 1.94719,4.5916 -6.18683,8.2843 -9.24938,9.3116 -4.1983,0.80317 -10.12337,1.92224 -12.75444,-2.60445 -0.35244,-0.60637 -0.47974,-1.31813 -0.71961,-1.9772 -0.0507,-3.02053 0.23442,-5.1763 3.45281,-6.10823 z" /><path
       style="fill:#000000"
       id="path33"
       d="m 391.23836,483.06077 c -4.30815,0.89217 -6.79197,4.71758 -8.66082,8.36481 -0.89066,2.84889 -1.75289,6.96949 1.02466,9.20378 1.91291,1.53876 3.35555,0.99193 5.71618,0.93879 4.25317,-1.70074 8.80101,-5.4385 9.66559,-10.21129 0.15471,-0.85407 0.0125,-1.7359 0.0187,-2.60385 -1.55578,-3.91107 -3.20793,-3.47963 -6.91425,-3.11151 0,0 0.50026,1.73254 0.50026,1.73254 v 0 c 1.17265,0.26614 2.05758,0.19295 2.78423,1.32091 0.0701,0.54408 0.25769,1.08573 0.21016,1.63224 -0.34355,3.9497 -4.00169,6.88462 -7.40049,8.22811 -3.43432,2.36346 -4.09509,-3.8915 -2.85127,-5.86654 1.58885,-3.08552 3.5947,-6.15935 7.01273,-7.39418 z" /><path
       style="fill:#000000"
       id="path34"
       d="m 254.70985,538.66376 c -1.94475,1.74094 -3.35636,4.51754 -2.63753,7.18981 0.18631,0.6926 0.60194,1.30204 0.90291,1.95305 3.13844,3.6761 8.2414,3.73867 11.90212,0.71784 0.68985,-0.56926 1.22297,-1.30543 1.83445,-1.95814 1.18401,-2.0791 2.11846,-4.71129 0.70193,-6.99331 -0.41439,-0.66759 -0.95418,-1.40873 -1.71041,-1.62206 -2.80893,-0.79237 -3.51881,0.13172 -5.47237,1.39398 0,0 0.71486,1.17412 0.71486,1.17412 v 0 c 0.43885,-0.0454 2.56367,-0.45454 2.98354,-0.10242 1.25109,1.0492 0.56901,2.9108 -0.01,4.03179 -2.16577,2.42662 -4.72967,4.22942 -7.75687,2.17542 -1.8191,-2.39139 -0.67451,-3.94264 1.11301,-5.89081 z" /><path
       style="fill:#000000"
       id="path35"
       d="m 239.57548,494.6766 c 0.92866,2.86308 2.29041,6.17617 4.97418,7.85031 0.88302,0.55082 1.8867,0.87915 2.83005,1.31872 0.81053,-0.11434 1.66505,-0.0559 2.4316,-0.34303 3.25086,-1.21767 5.26994,-5.18401 5.21242,-8.49371 -0.0143,-0.82304 -0.28585,-1.62131 -0.42878,-2.43197 -0.43075,-0.66865 -0.65739,-1.52682 -1.29227,-2.00596 -4.58682,-3.46154 -7.065,0.27941 -10.08151,3.33419 0,0 1.25474,1.18519 1.25474,1.18519 v 0 c 1.86267,-1.53873 1.70029,-1.75971 4.02353,-2.35118 0.47205,-0.12018 0.99966,0.0397 1.4553,-0.13258 0.14932,-0.0565 -0.0335,-0.50333 0.12103,-0.46334 0.39043,0.10103 0.63711,0.49463 0.95567,0.74195 0.16351,0.5173 0.41711,1.01437 0.49053,1.55191 0.35035,2.56479 -1.1747,5.78429 -3.9041,6.14466 -2.34303,0.23688 -4.52163,-4.32782 -5.09372,-6.21756 z" /><path
       style="fill:#000000"
       id="path36"
       d="m 366.58981,445.88241 c -4.12675,2.35305 -4.59575,5.93004 -4.16779,10.30795 0.8707,2.92575 2.51059,5.87955 6.02772,6.00342 1.54083,0.0543 2.70515,-1.20375 3.75518,-2.04913 0.44507,-0.64432 0.99662,-1.22685 1.3352,-1.93296 1.39891,-2.91743 1.44937,-7.26166 0.0731,-10.20323 -0.32151,-0.68721 -0.8629,-1.24815 -1.29435,-1.87223 -2.82528,-1.27913 -1.32479,-0.79951 -4.51723,-1.38864 0,0 0.21105,1.97796 0.21105,1.97796 v 0 c 0.94699,-0.073 0.46491,-0.18547 1.35542,0.60687 0.28125,0.39498 0.6273,0.75106 0.84377,1.18495 1.10095,2.20672 1.44083,5.58696 0.54619,7.92962 -0.18885,0.4945 -0.5504,0.90435 -0.8256,1.35652 -0.31068,0.27634 -0.58601,0.59848 -0.93205,0.82902 -0.24644,0.16419 -0.60637,0.13516 -0.82115,0.33902 -0.1001,0.095 0.16603,0.42783 0.0288,0.41303 -1.49082,-0.16085 -2.21834,-2.13202 -2.71359,-3.2148 -0.63095,-3.77412 0.0268,-5.7842 2.87248,-8.31668 z" /><path
       style="fill:#000000"
       id="path37"
       d="m 310.9923,435.15024 c -4.89526,-3.35837 -9.18487,-2.34948 -14.36271,-0.34565 -6.49566,3.182 -11.99879,7.5299 -16.27858,13.35571 -0.37753,0.85282 -0.87618,1.66176 -1.13259,2.55847 -1.04721,3.66224 0.30137,7.67804 3.2188,10.09959 0.91544,0.75983 2.01557,1.26452 3.02336,1.89678 1.4995,0.54996 2.94526,1.27788 4.49851,1.64988 5.74768,1.37656 12.64763,0.0711 17.90116,-2.38974 1.34753,-0.63121 2.59799,-1.45174 3.89698,-2.17761 4.59306,-3.31507 8.84914,-8.08146 8.00537,-14.19958 -0.12792,-0.9275 -0.52022,-1.79885 -0.78033,-2.69827 -1.72969,-3.09039 -4.07003,-4.92806 -7.61928,-5.71718 -0.96999,-0.21566 -1.98725,-0.0202 -2.98088,-0.0302 0,0 0.14319,2.21689 0.14319,2.21689 v 0 c 2.49464,1.00416 4.84026,1.94146 6.48611,4.20376 0.25285,0.57249 0.61567,1.10815 0.75853,1.71746 1.15524,4.92689 -2.50478,8.89648 -6.09954,11.61558 -1.17568,0.67179 -2.30506,1.432 -3.52703,2.01536 -5.68986,2.71629 -12.12005,3.30725 -18.16729,1.49305 -0.84601,-0.42762 -1.75176,-0.75334 -2.53802,-1.28285 -3.1509,-2.12199 -3.90716,-5.74093 -2.29162,-9.04014 3.8531,-5.40644 9.08238,-9.55197 14.99644,-12.55372 3.39926,-1.3072 7.26339,-2.4369 10.62411,-0.4311 z" /><path
       style="fill:#000000"
       id="path38"
       d="m 201.4507,144.44896 c 1.10872,2.33842 2.66412,4.42152 3.92844,6.67758 1.51286,2.90387 2.72911,5.97923 3.63009,9.12811 0.14587,0.62122 0.31527,1.23621 0.49421,1.84851 0.0389,0.13306 0.0616,0.52783 0.11465,0.39975 0.15018,-0.36272 0.24205,-0.74692 0.36308,-1.12038 0.24103,-0.20662 0.63881,-0.62073 1.02097,-0.40164 0.45871,0.26296 0.76295,0.74708 1.04111,1.19673 0.0777,0.12566 -0.15878,0.37539 -0.0271,0.44244 0.12361,0.063 0.16523,-0.22425 0.2637,-0.32196 0.18348,-0.18206 0.3865,-0.34331 0.57975,-0.51496 2.72935,-2.29364 6.02499,-3.8286 9.33356,-5.09146 2.63874,-0.92038 5.40017,-1.40977 8.18588,-1.54709 0.60304,0.0744 1.28707,-0.12202 1.87002,0.0826 -0.0423,0.005 -0.29309,0.13621 -0.2434,0.0278 1.48739,-3.24593 1.94019,-2.07176 0.10333,-3.84885 -2.99642,-2.58907 -6.84259,-3.79009 -10.49803,-5.14982 -3.43761,-1.55452 -7.16801,-2.09761 -10.79513,-2.98488 -3.039,-0.87589 -5.37582,-1.05156 -8.04501,0.84429 -0.1938,0.36797 -0.3876,0.73595 -0.5814,1.10392 0,0 1.31704,1.54423 1.31704,1.54423 v 0 c 0.33586,-0.0443 0.67172,-0.0886 1.00759,-0.13296 2.28879,-0.98367 3.90207,-0.76794 6.29118,-0.0609 3.53946,0.7605 7.1142,1.40905 10.44972,2.89149 2.67651,1.0169 5.62794,2.15535 7.96727,3.50752 0.54877,0.553 1.34104,1.37024 1.34607,1.36445 2.2344,-2.5737 2.57862,-2.40018 1.31777,-2.38859 -0.75287,0.0515 -1.50849,0.0715 -2.2567,0.17807 -2.99048,0.34104 -5.95646,0.89153 -8.77693,1.98097 -3.5516,1.41893 -7.07173,3.09341 -9.99881,5.59969 -0.50428,0.4602 -2.0018,1.62861 -1.74993,2.53738 0.45557,1.64373 1.5869,2.03799 2.84975,1.30682 0.87297,-1.96038 0.49052,-1.66566 -0.30363,-3.65687 -1.31507,-3.14263 -2.46748,-6.36656 -4.06606,-9.38022 -1.24909,-2.25478 -2.73873,-4.34414 -4.0293,-6.5692 z" /><path
       style="fill:#000000"
       id="path39"
       d="m 161.95232,178.72058 c -3.60117,0.0721 -6.15516,2.60609 -8.43646,5.10532 -3.36393,3.93939 -6.50504,8.05927 -9.74972,12.09572 -0.83551,1.0491 -1.67372,2.09607 -2.50861,3.14565 -0.016,0.0221 -0.0321,0.0442 -0.0481,0.0663 0.79273,0.77931 1.41496,1.78302 2.3782,2.33793 0.29827,0.17183 0.61979,-0.30155 0.94078,-0.42591 1.46347,-0.567 3.00472,-1.00874 4.49624,-1.49038 5.41234,-1.63616 10.54741,-4.04847 15.69309,-6.36321 0.89228,-0.24449 4.48556,-2.51602 5.47034,-1.69529 -1.57555,0.69382 -0.25425,-2.64175 -0.25947,-3.61988 -7e-4,-0.12997 -0.26102,-0.23482 -0.1874,-0.34193 0.0671,-0.0976 0.37222,0.24816 0.32709,0.13868 -0.12794,-0.31037 -0.40171,-0.53797 -0.60257,-0.80696 -1.56965,-2.52432 -3.31626,-4.91984 -5.34065,-7.09675 -2.69633,-2.54915 -3.45164,-2.09858 -6.08375,-0.36251 0,0 0.71923,1.56006 0.71923,1.56006 v 0 c 3.63163,0.34394 -0.45168,-0.96137 2.21727,0.47109 2.0306,1.94054 3.66864,4.2427 5.1315,6.63399 0.92306,1.45155 0.85739,1.54407 2.47479,2.86443 0.29191,0.2383 0.76856,0.83167 0.99735,0.53224 0.71756,-0.93912 0.93872,-2.19003 1.15686,-3.35161 0.0209,-0.11112 -0.96107,-0.13693 -0.98257,-0.13807 -2.39208,0.17658 -4.46618,1.56958 -6.61384,2.49777 -5.00888,2.36034 -10.04752,4.73503 -15.38079,6.27944 -0.26887,0.0821 -5.32876,1.64295 -5.3024,1.7339 0.26941,0.9297 0.89063,1.71886 1.33594,2.57829 0.0131,-0.0173 0.0261,-0.0346 0.0392,-0.0519 0.76289,-1.08642 1.56314,-2.14599 2.34511,-3.21858 3.03335,-4.12178 6.14345,-8.18787 9.47002,-12.07916 1.7089,-1.92831 3.52949,-4.09276 6.24843,-4.43293 z" /><path
       style="fill:#000000"
       id="path41"
       d="m 106.95989,201.69387 c -4.00674,-4.26095 -8.569457,-8.04408 -12.773837,-12.13905 -6.30721,-6.82658 -12.85082,-13.41007 -19.756115,-19.63099 -4.184197,-2.9511 -7.75972,-7.7773 -12.962046,-8.90563 -0.49038,0.12208 -1.039135,0.10404 -1.471141,0.36624 -3.296979,2.00103 -0.0562,6.00026 1.4129,7.89787 3.657601,4.363 8.258393,7.75675 12.286268,11.7542 3.870829,3.94309 7.307174,8.27387 10.887044,12.47482 2.89033,3.89009 7.00219,6.41861 11.2063,8.66063 1.97801,1.25967 4.300427,1.66995 6.435677,2.54208 0.82613,0.33743 1.60754,0.77548 2.41563,1.15409 1.91273,0.29486 0.93964,0.22088 2.92006,0.2113 0,0 -0.10469,-2.86936 -0.10469,-2.86936 v 0 c -1.47485,-0.67957 -0.73634,-0.28046 -2.20392,-1.21856 -2.86466,-1.26861 -5.919047,-2.03009 -8.672267,-3.55128 -3.24668,-1.75614 -6.48797,-3.50035 -8.82822,-6.44014 -3.72815,-4.17708 -7.26141,-8.52836 -11.198463,-12.5161 -3.918808,-3.98363 -8.455028,-7.28604 -12.137279,-11.49913 -0.189573,-0.23295 -2.410281,-3.4161 -2.714075,-3.51143 -0.113682,-0.0357 -0.238579,0.057 -0.355709,0.0352 -0.04051,-0.008 0.06006,-0.0564 0.09008,-0.0847 3.992849,1.18013 6.813307,5.02496 10.206998,7.19172 7.002188,6.11356 13.498358,12.73233 19.963248,19.40412 4.75019,4.3982 9.632637,8.65636 14.506417,12.91545 z" /><path
       style="fill:#000000"
       id="path41-2"
       d="m 254.89986,121.63218 c -4.00674,-4.26095 -8.56946,-8.04408 -12.77384,-12.13905 -6.30721,-6.82658 -12.85082,-13.410069 -19.75611,-19.630989 -4.1842,-2.9511 -7.75972,-7.7773 -12.96205,-8.90563 -0.49038,0.12208 -1.03913,0.10404 -1.47114,0.36624 -3.29698,2.00103 -0.0562,6.00026 1.4129,7.89787 3.6576,4.363 8.25839,7.75675 12.28627,11.754199 3.87083,3.94309 7.30717,8.27387 10.88704,12.47482 2.89033,3.89009 7.00219,6.41861 11.2063,8.66063 1.97801,1.25967 4.30043,1.66995 6.43568,2.54208 0.82613,0.33743 1.60754,0.77548 2.41563,1.15409 1.91273,0.29486 0.93964,0.22088 2.92006,0.2113 0,0 -0.10469,-2.86936 -0.10469,-2.86936 v 0 c -1.47485,-0.67957 -0.73634,-0.28046 -2.20392,-1.21856 -2.86466,-1.26861 -5.91905,-2.03009 -8.67227,-3.55128 -3.24668,-1.75614 -6.48797,-3.50035 -8.82822,-6.44014 -3.72815,-4.17708 -7.26141,-8.52836 -11.19846,-12.516099 -3.91881,-3.98363 -8.45503,-7.28604 -12.13728,-11.49913 -0.18957,-0.23295 -2.41028,-3.4161 -2.71407,-3.51143 -0.11369,-0.0357 -0.23858,0.057 -0.35571,0.0352 -0.0405,-0.008 0.0601,-0.0564 0.0901,-0.0847 3.99285,1.18013 6.8133,5.02496 10.207,7.19172 7.00218,6.11356 13.49835,12.732329 19.96324,19.404119 4.75019,4.3982 9.63264,8.65636 14.50642,12.91545 z" /></g></svg>
